<?xml version="1.0" encoding="UTF-8"?>
<svg width="177px" height="33px" viewBox="0 0 177 33" version="1.1" xmlns="http://www.w3.org/2000/svg" xmlns:xlink="http://www.w3.org/1999/xlink">
    <!-- Generator: Sketch 53.2 (72643) - https://sketchapp.com -->
    <title>logo</title>
    <desc>Created with Sketch.</desc>
    <g id="Page-1" stroke="none" stroke-width="1" fill="none" fill-rule="evenodd">
        <g id="Desktop-HD" transform="translate(-24.000000, -26.000000)">
            <g id="Header">
                <g id="logo" transform="translate(24.000000, 25.000000)">
                    <g id="icone" transform="translate(92.087193, 0.718820)">
                        <rect id="Rectangle" fill="#38AE47" x="0" y="2" width="9.34466033" height="30.9092611" rx="1"></rect>
                        <rect id="Rectangle-Copy" fill="#F05C5E" x="12" y="2" width="9.34466033" height="30.9092611" rx="1"></rect>
                        <path d="M28,1 L35.3446603,1 C35.8969451,1 36.3446603,1.44771525 36.3446603,2 L36.3446603,30.9092611 C36.3446603,31.4615458 35.8969451,31.9092611 35.3446603,31.9092611 L28,31.9092611 C27.4477153,31.9092611 27,31.4615458 27,30.9092611 L27,2 C27,1.44771525 27.4477153,1 28,1 Z" id="Rectangle-Copy-2" fill="#EADA06" transform="translate(31.672330, 16.454631) rotate(-15.000000) translate(-31.672330, -16.454631) "></path>
                    </g>
                    <path d="M12.1918615,10.0596759 C10.6082032,10.0596759 9.37274367,10.7082922 8.48544577,12.0055442 C7.59814786,13.3027962 7.15450556,15.0914047 7.15450556,17.3714234 C7.15450556,22.1111666 8.95715338,24.4810027 12.5625031,24.4810027 C13.6519701,24.4810027 14.7077265,24.3293781 15.7298038,24.0261244 C16.7518812,23.7228707 17.7795589,23.3578485 18.8128678,22.931047 L18.8128678,28.55806 C16.7574816,29.4678212 14.4325713,29.9226949 11.8380673,29.9226949 C8.12040138,29.9226949 5.2704208,28.8444757 3.28804004,26.6880048 C1.30565927,24.5315339 0.314483761,21.4148064 0.314483761,17.3377287 C0.314483761,14.7881512 0.794628273,12.5474768 1.7549317,10.6156383 C2.71523513,8.68379982 4.09670355,7.19844048 5.89937841,6.15951572 C7.70205327,5.12059096 9.82198956,4.60113637 12.2592509,4.60113637 C14.9211446,4.60113637 17.4650682,5.17955607 19.8910979,6.33641284 L17.8525692,11.5759369 C16.9428081,11.1491354 16.0330606,10.789729 15.1232994,10.4977069 C14.2135383,10.2056848 13.2364021,10.0596759 12.1918615,10.0596759 Z M36.8720978,29.585748 L22.248603,29.585748 L22.248603,4.9549306 L36.8720978,4.9549306 L36.8720978,10.2955388 L28.903304,10.2955388 L28.903304,14.170428 L36.2824408,14.170428 L36.2824408,19.5110361 L28.903304,19.5110361 L28.903304,24.1609031 L36.8720978,24.1609031 L36.8720978,29.585748 Z M60.7268143,16.7480716 C60.7268143,20.8588442 59.5952456,24.0261133 57.3320744,26.2499738 C55.0689032,28.4738344 51.8875948,29.585748 47.7880538,29.585748 L39.81926,29.585748 L39.81926,4.9549306 L48.3440162,4.9549306 C52.2975461,4.9549306 55.3496928,5.96576115 57.5005478,7.98745258 C59.6514029,10.009144 60.7268143,12.9293212 60.7268143,16.7480716 Z M53.8194031,16.9839345 C53.8194031,14.726379 53.3729529,13.0528929 52.4800392,11.9634258 C51.5871255,10.8739588 50.2309279,10.3292334 48.4114056,10.3292334 L46.473961,10.3292334 L46.473961,24.1272085 L47.9565273,24.1272085 C49.9782187,24.1272085 51.4607702,23.5403652 52.4042262,22.366661 C53.3476822,21.1929568 53.8194031,19.3987326 53.8194031,16.9839345 Z M86.8222275,17.2366446 C86.8222275,21.3811121 85.8057813,24.5315339 83.7728582,26.6880048 C81.7399352,28.8444757 78.7636008,29.9226949 74.8437657,29.9226949 C70.9800888,29.9226949 68.0177937,28.8388599 65.9567916,26.6711575 C63.8957895,24.503455 62.8653039,21.3474174 62.8653039,17.2029499 C62.8653039,13.103409 63.8901737,9.97264213 65.9399442,7.81055547 C67.9897147,5.6484688 70.968857,4.56744168 74.8774604,4.56744168 C78.7972954,4.56744168 81.7680141,5.64004521 83.7897056,7.78528445 C85.811397,9.93052369 86.8222275,13.0809456 86.8222275,17.2366446 Z M69.8737991,17.2366446 C69.8737991,21.9988511 71.5304381,24.3799186 74.8437657,24.3799186 C76.5285086,24.3799186 77.7780074,23.8014989 78.5922998,22.6446422 C79.4065922,21.4877854 79.8137323,19.6851376 79.8137323,17.2366446 C79.8137323,14.7769201 79.4009765,12.9602329 78.5754525,11.7865287 C77.7499285,10.6128245 76.5172768,10.0259812 74.8774604,10.0259812 C71.5416695,10.0259812 69.8737991,12.4295117 69.8737991,17.2366446 Z" id="CEDO" fill="#FFFFFF" fill-rule="nonzero"></path>
                    <path d="M144.814156,20.6229608 L144.814156,29.585748 L138.159455,29.585748 L138.159455,4.9549306 L146.229333,4.9549306 C152.923378,4.9549306 156.27035,7.38092393 156.27035,12.2329834 C156.27035,15.0858146 154.87765,17.2927946 152.092209,18.8539897 L159.269178,29.585748 L151.721567,29.585748 L146.498891,20.6229608 L144.814156,20.6229608 Z M144.814156,15.6192996 L146.06086,15.6192996 C148.385805,15.6192996 149.54826,14.5916218 149.54826,12.5362356 C149.54826,10.8402611 148.408268,9.99228656 146.128249,9.99228656 L144.814156,9.99228656 L144.814156,15.6192996 Z M176.250178,22.1055271 C176.250178,23.6330273 175.862693,24.989225 175.087711,26.1741608 C174.312729,27.3590966 173.1952,28.2800756 171.735089,28.9371253 C170.274979,29.594175 168.562183,29.9226949 166.596649,29.9226949 C164.956833,29.9226949 163.58098,29.8075725 162.46905,29.5773244 C161.35712,29.3470762 160.20028,28.9455518 158.998497,28.3727392 L158.998497,22.442474 C160.26767,23.0939079 161.587365,23.6021311 162.957623,23.9671587 C164.32788,24.3321863 165.585803,24.5146974 166.731428,24.5146974 C167.71981,24.5146974 168.444239,24.3434178 168.904735,24.0008534 C169.365232,23.658289 169.595477,23.2174546 169.595477,22.6783368 C169.595477,22.3413883 169.502817,22.0465627 169.317495,21.7938513 C169.132174,21.5411398 168.83454,21.2856243 168.424586,21.0272971 C168.014632,20.7689699 166.922373,20.2410917 165.147778,19.4436467 C163.541656,18.7135915 162.337083,18.0060101 161.534022,17.3208813 C160.730962,16.6357526 160.135695,15.849551 159.748204,14.9622531 C159.360713,14.0749552 159.16697,13.0248146 159.16697,11.8117997 C159.16697,9.5430127 159.992482,7.77405923 161.64353,6.50488628 C163.294578,5.23571333 165.563331,4.60113637 168.449857,4.60113637 C170.999435,4.60113637 173.599515,5.19078753 176.250178,6.37010753 L174.211649,11.5085475 C171.909167,10.4527754 169.9212,9.92489718 168.247689,9.92489718 C167.382854,9.92489718 166.753893,10.0765218 166.360786,10.3797755 C165.96768,10.6830292 165.771129,11.0592828 165.771129,11.5085475 C165.771129,11.9915072 166.021029,12.423918 166.520836,12.8057931 C167.020643,13.1876681 168.376841,13.884018 170.58947,14.8948638 C172.712246,15.8495514 174.186374,16.8744212 175.011898,17.9695041 C175.837422,19.064587 176.250178,20.4432475 176.250178,22.1055271 Z" id="RS" fill="#FFFFFF" fill-rule="nonzero"></path>
                </g>
            </g>
        </g>
    </g>
</svg>